HIERARCHY
ROOT Hips
{
	OFFSET -14.64140 90.27770 -84.91600
	CHANNELS 6 Xposition Yposition Zposition Zrotation Xrotation Yrotation
	JOINT Spine
	{
		OFFSET 0.00000 13.20850 -1.60436
		CHANNELS 3 Zrotation Xrotation Yrotation
		JOINT Spine1
		{
			OFFSET 0.00000 8.61716 0.00000
			CHANNELS 3 Zrotation Xrotation Yrotation
			JOINT Spine2
			{
				OFFSET 0.00000 8.61717 0.00000
				CHANNELS 3 Zrotation Xrotation Yrotation
				JOINT Spine3
				{
					OFFSET 0.00000 8.61717 0.00000
					CHANNELS 3 Zrotation Xrotation Yrotation
					JOINT Neck
					{
						OFFSET 0.00000 11.07920 1.10792
						CHANNELS 3 Zrotation Xrotation Yrotation
						JOINT Neck1
						{
							OFFSET 0.00000 7.08032 0.00000
							CHANNELS 3 Zrotation Xrotation Yrotation
							JOINT Head
							{
								OFFSET 0.00000 7.08031 0.00000
								CHANNELS 3 Zrotation Xrotation Yrotation
								End site
								{
									OFFSET 0.00000 0.00000 0.00000
								}
							}
						}
					}
					JOINT RightShoulder
					{
						OFFSET -0.01000 7.91373 5.19711
						CHANNELS 3 Zrotation Xrotation Yrotation
						JOINT RightArm
						{
							OFFSET -18.41580 0.00000 0.00000
							CHANNELS 3 Zrotation Xrotation Yrotation
							JOINT RightForeArm
							{
								OFFSET -29.11090 0.00000 0.00000
								CHANNELS 3 Zrotation Xrotation Yrotation
								JOINT RightHand
								{
									OFFSET -24.65040 0.00000 0.00000
									CHANNELS 3 Zrotation Xrotation Yrotation
									JOINT RightHandThumb1
									{
										OFFSET -5.35114 -0.85590 3.97906
										CHANNELS 3 Zrotation Xrotation Yrotation
										JOINT RightHandThumb2
										{
											OFFSET -4.52789 0.00000 0.00000
											CHANNELS 3 Zrotation Xrotation Yrotation
											JOINT RightHandThumb3
											{
												OFFSET -2.46976 0.00000 0.00000
												CHANNELS 3 Zrotation Xrotation Yrotation
												End site
												{
													OFFSET 0.00000 0.00000 0.00000
												}
											}
										}
									}
									JOINT RightHandIndex1
									{
										OFFSET -14.26970 0.00000 2.88139
										CHANNELS 3 Zrotation Xrotation Yrotation
										JOINT RightHandIndex2
										{
											OFFSET -5.48836 0.00000 0.00000
											CHANNELS 3 Zrotation Xrotation Yrotation
											JOINT RightHandIndex3
											{
												OFFSET -3.01859 0.00000 0.00000
												CHANNELS 3 Zrotation Xrotation Yrotation
												End site
												{
													OFFSET 0.00000 0.00000 0.00000
												}
											}
										}
									}
									JOINT RightHandMiddle1
									{
										OFFSET -14.26970 0.00000 -0.09147
										CHANNELS 3 Zrotation Xrotation Yrotation
										JOINT RightHandMiddle2
										{
											OFFSET -6.17441 0.00000 0.00000
											CHANNELS 3 Zrotation Xrotation Yrotation
											JOINT RightHandMiddle3
											{
												OFFSET -3.56743 0.00000 0.00000
												CHANNELS 3 Zrotation Xrotation Yrotation
												End site
												{
													OFFSET 0.00000 0.00000 0.00000
												}
											}
										}
									}
									JOINT RightHandRing1
									{
										OFFSET -12.69180 0.00000 -3.06433
										CHANNELS 3 Zrotation Xrotation Yrotation
										JOINT RightHandRing2
										{
											OFFSET -5.62556 0.00000 0.00000
											CHANNELS 3 Zrotation Xrotation Yrotation
											JOINT RightHandRing3
											{
												OFFSET -3.56744 0.00000 0.00000
												CHANNELS 3 Zrotation Xrotation Yrotation
												End site
												{
													OFFSET 0.00000 0.00000 0.00000
												}
											}
										}
									}
									JOINT RightHandPinky1
									{
										OFFSET -11.11390 0.00000 -6.03719
										CHANNELS 3 Zrotation Xrotation Yrotation
										JOINT RightHandPinky2
										{
											OFFSET -4.52789 0.00000 0.00000
											CHANNELS 3 Zrotation Xrotation Yrotation
											JOINT RightHandPinky3
											{
												OFFSET -2.46976 0.00000 0.00000
												CHANNELS 3 Zrotation Xrotation Yrotation
												End site
												{
													OFFSET 0.00000 0.00000 0.00000
												}
											}
										}
									}
								}
							}
						}
					}
					JOINT LeftShoulder
					{
						OFFSET 0.01000 7.91373 5.19711
						CHANNELS 3 Zrotation Xrotation Yrotation
						JOINT LeftArm
						{
							OFFSET 18.41580 0.00000 0.00000
							CHANNELS 3 Zrotation Xrotation Yrotation
							JOINT LeftForeArm
							{
								OFFSET 29.11090 0.00000 0.00000
								CHANNELS 3 Zrotation Xrotation Yrotation
								JOINT LeftHand
								{
									OFFSET 24.65040 0.00000 0.00000
									CHANNELS 3 Zrotation Xrotation Yrotation
									JOINT LeftHandThumb1
									{
										OFFSET 5.35114 -0.85590 3.97906
										CHANNELS 3 Zrotation Xrotation Yrotation
										JOINT LeftHandThumb2
										{
											OFFSET 4.52789 0.00000 0.00000
											CHANNELS 3 Zrotation Xrotation Yrotation
											JOINT LeftHandThumb3
											{
												OFFSET 2.46977 0.00000 0.00000
												CHANNELS 3 Zrotation Xrotation Yrotation
												End site
												{
													OFFSET 0.00000 0.00000 0.00000
												}
											}
										}
									}
									JOINT LeftHandIndex1
									{
										OFFSET 14.26970 0.00000 2.88139
										CHANNELS 3 Zrotation Xrotation Yrotation
										JOINT LeftHandIndex2
										{
											OFFSET 5.48836 0.00000 0.00000
											CHANNELS 3 Zrotation Xrotation Yrotation
											JOINT LeftHandIndex3
											{
												OFFSET 3.01859 0.00000 0.00000
												CHANNELS 3 Zrotation Xrotation Yrotation
												End site
												{
													OFFSET 0.00000 0.00000 0.00000
												}
											}
										}
									}
									JOINT LeftHandMiddle1
									{
										OFFSET 14.26970 0.00000 -0.09147
										CHANNELS 3 Zrotation Xrotation Yrotation
										JOINT LeftHandMiddle2
										{
											OFFSET 6.17440 0.00000 0.00000
											CHANNELS 3 Zrotation Xrotation Yrotation
											JOINT LeftHandMiddle3
											{
												OFFSET 3.56744 0.00000 0.00000
												CHANNELS 3 Zrotation Xrotation Yrotation
												End site
												{
													OFFSET 0.00000 0.00000 0.00000
												}
											}
										}
									}
									JOINT LeftHandRing1
									{
										OFFSET 12.69180 0.00000 -3.06433
										CHANNELS 3 Zrotation Xrotation Yrotation
										JOINT LeftHandRing2
										{
											OFFSET 5.62556 0.00000 0.00000
											CHANNELS 3 Zrotation Xrotation Yrotation
											JOINT LeftHandRing3
											{
												OFFSET 3.56744 0.00000 0.00000
												CHANNELS 3 Zrotation Xrotation Yrotation
												End site
												{
													OFFSET 0.00000 0.00000 0.00000
												}
											}
										}
									}
									JOINT LeftHandPinky1
									{
										OFFSET 11.11390 0.00000 -6.03719
										CHANNELS 3 Zrotation Xrotation Yrotation
										JOINT LeftHandPinky2
										{
											OFFSET 4.52789 0.00000 0.00000
											CHANNELS 3 Zrotation Xrotation Yrotation
											JOINT LeftHandPinky3
											{
												OFFSET 2.46976 0.00000 0.00000
												CHANNELS 3 Zrotation Xrotation Yrotation
												End site
												{
													OFFSET 0.00000 0.00000 0.00000
												}
											}
										}
									}
								}
							}
						}
					}
					JOINT pCube4
					{
						OFFSET 0.00000 10.91090 1.10792
						CHANNELS 3 Zrotation Xrotation Yrotation
						End site
						{
							OFFSET 0.00000 0.00000 0.00000
						}
					}
				}
			}
		}
	}
	JOINT RightUpLeg
	{
		OFFSET -9.98441 0.00000 0.00000
		CHANNELS 3 Zrotation Xrotation Yrotation
		JOINT RightLeg
		{
			OFFSET 0.00000 -42.11790 0.00000
			CHANNELS 3 Zrotation Xrotation Yrotation
			JOINT RightFoot
			{
				OFFSET 0.00000 -45.00020 -0.00001
				CHANNELS 3 Zrotation Xrotation Yrotation
				JOINT RightForeFoot
				{
					OFFSET 0.00000 -3.74820 0.00000
					CHANNELS 3 Zrotation Xrotation Yrotation
					JOINT RightToeBase
					{
						OFFSET 0.00000 0.06325 14.43120
						CHANNELS 3 Zrotation Xrotation Yrotation
						End site
						{
							OFFSET 0.00000 0.00000 0.00000
						}
					}
				}
			}
		}
	}
	JOINT LeftUpLeg
	{
		OFFSET 9.98441 0.00000 0.00000
		CHANNELS 3 Zrotation Xrotation Yrotation
		JOINT LeftLeg
		{
			OFFSET 0.00000 -42.11800 0.00000
			CHANNELS 3 Zrotation Xrotation Yrotation
			JOINT LeftFoot
			{
				OFFSET 0.00000 -45.00070 0.00000
				CHANNELS 3 Zrotation Xrotation Yrotation
				JOINT LeftForeFoot
				{
					OFFSET 0.00000 -3.74824 0.00000
					CHANNELS 3 Zrotation Xrotation Yrotation
					JOINT LeftToeBase
					{
						OFFSET 0.00000 0.06325 14.43110
						CHANNELS 3 Zrotation Xrotation Yrotation
						End site
						{
							OFFSET 0.00000 0.00000 0.00000
						}
					}
				}
			}
		}
	}
}
MOTION
Frames: 4
Frame Time: 0.050000
-0.011211661703197243 0.017063386105010406 0.04173465720659719 0.026722059988863556 0.010125197008696466 -0.04219737461663284 5.137637327154928 6.616419213739425 -1.8771175813299337 -1.0593079023355847 4.132925016686202 0.428908533299151 -0.6865978983351535 -0.5863025634100967 1.0115840341057507 -0.07803927007842971 0.08353553734687566 -0.258039955283621 -0.40437003846046704 14.077153536394563 -1.44203879702419 -0.37251764710829005 -1.7894613490908273 -4.000144274883886 0.3267376204182197 -19.701206869929866 -0.31897921248300126 -12.70561406966404 3.968710811453076 -17.426471799227514 77.42074368518712 -6.522826416929632 15.295353318476181 10.24747228166259 -5.028511770222382 70.73082814323755 2.1093927014005205 0.12873049577035087 0.1323924157398557 4.516673007685272 -0.08407507042038107 -1.6008722158826103 -0.04692844778911165 -0.03145766309973407 -56.22136174534093 0.020869717993127753 0.04791827609060165 -56.237080248020746 -38.78879934220702 0.04068802226866494 0.008406002844558133 -0.021360738778570653 -0.04955194548637244 -0.022765833901306726 -0.02403350386123812 -0.042297597875737065 -0.035400882796128665 -36.7332891769099 -0.03979019796001998 -0.036864699849636674 0.009098915048210848 -0.004293599143472166 0.024394737756525574 0.04308730481227177 -0.014539928997347717 -0.043391845481204346 -19.710405368655458 0.0408943648018742 0.026193925210023044 0.03094076588314129 -0.008139000918371019 0.02389354724670111 -0.024271894440756683 0.02340547030786698 -0.04338909168786521 24.051486414709338 -0.022211466567549982 0.04542918865209881 28.827839084119613 -0.01759099343000528 0.03763463770978083 28.837380598592024 -0.010633975559722562 -0.04081790668137666 12.143095073000348 2.5841157285833174 14.867055180663927 -71.91441335641444 7.620343211448133 -20.789738486143296 -3.882798028682288 -7.336808362007281 -61.9383222822336 -4.475471706343492 2.469088644074559 -3.617490330931265 -0.500827703814874 0.054019371769178544 -8.144917761007713 0.04277546353678548 0.02144110940469982 44.561890268703706 -0.0002948213228794224 0.024104802633172526 44.55130123749054 12.41180460009569 0.0009829013662311999 -0.02471081768714963 0.0004748706498976578 -0.0015131892504704934 -0.007263215378342627 0.005709183476059028 -0.021645401077903435 0.008426047033583869 11.112492269241727 -0.028374700128588424 -0.0011326215035201387 0.0008818166375004739 -0.045236910783565086 0.046583377292418335 0.04345893727643426 0.027322361275883833 -0.049684507816846406 4.7430068964237515 -0.017380919031013787 -0.025804314043558315 -0.013547898516790672 -0.0013715265272357861 0.006455186011086235 0.008185654935405014 -0.037742650187468425 -0.006117684439031046 -5.616462840389374 0.028853138906524127 0.013684751128414085 -6.737409949278727 0.010460986644066018 -0.0030221343968927583 -6.768726387480445 -0.016859785541312084 -0.016819107080439353 0.028160361410063523 -0.020080685401474927 -0.026379836456499054 8.04811438554622 3.4562523843604764 -19.239259237784008 -0.04015550313146655 10.40248227335186 0.03613346742218149 -5.6555745563405 -15.65071857157065 3.173212870477887 0.03643873314934568 -0.02595299112607678 0.008372531950979792 0.027956849947440295 4.719357602952995 -0.03791841196384081 12.467257302655767 -8.211052811105144 6.843317086787397 0.011553903871388256 46.406698389276585 0.0010722502710073798 -4.344050100782638 -14.76976387728884 -3.8204032421702223 -0.025902893176840348 0.010100971385304346 0.03622185009401398 0.03438849935768059 -10.70568050577406 0.010651151738535473 
0.0448032824316781 0.01348274383982459 0.005227309992901341 -0.004459186429359139 0.042166048441889016 -0.046298201074556934 5.129563924527444 6.635275491524674 -1.9079419444843329 -1.0232842581117263 4.205573949936462 0.38214780621041305 -0.6195104520364666 -0.5638303289924018 0.9593989250921089 0.08837989120084822 0.059268725503976535 -0.29221316018138205 -0.37995136955367464 14.097326182159527 -1.4709563046355378 -0.442127649541218 -1.7964184071774902 -4.297027369753861 0.28680493085191033 -19.68200419448039 -0.4147854416843901 -12.407079656705449 3.8755948996405465 -17.507743999444305 76.09708981282601 -5.368533296988505 14.798413684721554 11.706730647225374 -4.939431206657565 71.70950332852259 2.7632016831634907 0.13893477375521893 -0.0825176816393876 4.514483104861515 -0.09462082894400897 -1.5704753801172655 0.018565599804834246 0.032776486485777925 -56.21692444734958 -0.020555725334140122 -0.03033724105999125 -56.193402702789655 -38.74343069675828 0.04908039510589874 -0.015887616168975605 0.006231595667334775 0.040101832459300116 0.04726716073203392 0.03954705724665501 0.04702933836870611 -0.011332331164446468 -36.68181670693246 0.037034448980474075 0.03029371713748698 -0.019120509690730935 -0.02999907092577077 -0.011198575508463506 -0.04423674428124373 0.04202643687289152 -0.031379185987754875 -19.766277113104962 0.044406312537028786 0.02561801357673758 -0.005133236705268255 -0.008881233331986448 -0.046692030744803534 0.009098148644765611 -0.032022589576037694 0.025808660279226976 24.06111163844647 0.02640936442605217 -0.037857806240010526 28.875157052270175 -0.014223896266224374 -0.009322137933554625 28.848744781620564 0.018956068166013234 -0.03893180272382865 11.884425077588832 2.535481507388752 14.965289612301024 -71.08195131456428 7.821365149485417 -20.168092104551263 -5.066305732668456 -7.072712828374339 -63.04034435538722 -5.217717011140192 2.2563464616016824 -3.4733965737541763 -0.4433857571496929 0.04115587860201664 -8.141399254630887 0.03317715132139428 -0.02806885419334665 44.584541663182996 -0.005331491281314947 -0.030686578050292238 44.61296794153453 12.423840582378835 0.048153087827208646 -0.018089583374306367 -0.004763745418941889 -0.032445132154740756 0.043020720285070015 -0.0087347539426856 0.036709724564682154 -0.020271208763005966 11.07864832817382 0.020880502359719392 -0.010905281632715954 -0.006529271397318376 0.04688574452206788 0.00047821496646608763 -0.04349301902177784 0.03105284258325543 0.0304442330545241 4.76190791368233 0.0024322571837241303 0.04044845411640437 0.023093439841271938 0.029496555294568003 0.041022942336177544 -0.03914800218559538 0.035689616925116324 0.024996837403258393 -5.611488268058391 -0.01910570011761986 -0.003511121529243427 -6.7349878753346895 0.03629550276322815 -0.026315207218804742 -6.765674002328782 0.0055456263208695546 0.04387064444620015 0.021598176726890593 -0.005963023975708902 0.0023046097680084455 8.084288945466435 3.500877209541435 -19.236525700652695 0.030842657731565838 10.403317335471446 -0.005104986633831098 -5.571982460794757 -15.655963096509545 3.1720842941701592 -0.0012985737263385767 0.04151789230019282 0.013209354528700373 0.0012384516516599682 4.710212777065092 -0.016221626107176847 12.457227908559013 -8.210290274662556 6.879965193277837 0.016308983240139872 46.4240735673734 0.030476722459978227 -4.311978416234368 -14.749543115955948 -3.8686803896688025 -0.01279688819192516 0.007835710472085316 -0.02960211913179954 -0.011757344680254215 -10.750076598216468 0.02113016643878278 
-0.009663223135087202 0.04422185220759828 -0.0325566847151288 0.005813298707028482 0.040408112795503257 -0.008546111107360902 5.0483889523440535 6.751277105239966 -1.8236564545827032 -0.9991096352776163 4.220667003841158 0.3840701267206198 -0.6664219684276109 -0.5128711027830701 1.065249809313694 0.17306622139153072 0.11824349346321654 -0.27875907419670076 -0.39298080601147256 14.075126359452478 -1.7978226733694278 -0.4086345399116369 -1.8463842050548933 -5.1038011624407655 0.31577265461691495 -19.701796562793064 -0.43970146632059387 -12.31121788106162 3.7444283663986573 -17.62039542589992 74.83683559112828 -4.152399896305905 14.738256794426945 12.466686620950483 -5.332412778923758 72.18998593742782 3.2326756596697845 0.10674353017143831 -0.21789605213673058 4.567081790973525 -0.1027142930665591 -1.5913274953925325 0.016075680951481874 0.00781311858581762 -56.219670528013594 0.03681843484469694 0.004015211860376133 -56.23387954602611 -38.795669372285914 0.044478691871752254 0.0013574223718072701 0.008863231768123238 0.03148636602682082 -0.004910110885690711 -0.04239259643673006 0.048096352570332186 0.021024925382178684 -36.67904777891439 -0.009260252764788104 -0.01357646927711636 -0.01245254383468156 -0.047031187353564666 0.022379918839661044 0.03340307288634038 -0.02347350874869106 0.010832692543566948 -19.76671343921496 0.004561155201756358 -0.039133268390018024 -0.03847922636859147 0.004399159244188715 -0.022393989779925797 0.0061056251137577375 -0.007452627947610274 0.03585514746964548 24.102238754719078 0.012960204008559075 0.017625966393779276 28.876932782537164 -0.0350806127695691 0.0007061001092645854 28.890702146258775 0.015727882066462216 -0.034616783849866266 11.573529701733156 2.511540750580185 15.092616665772555 -70.53359209261248 8.013369117222549 -19.53609432353446 -6.166958129563706 -7.632295607216962 -63.55975999259095 -5.768351658559462 1.97054503192127 -3.12986283149509 -0.5046541792296886 0.054408855637715456 -8.11953607379111 -0.047108012649337026 0.03356664538780729 44.5553360866951 -0.03978079545942797 0.03862167064070931 44.58958647114041 12.500056946508414 -0.02228227760287578 0.026603820794186907 -0.04556575659239322 -0.02605969798201089 0.014315720257412743 0.04192196054347355 0.009699137856713714 0.023598226999580103 11.071755355662148 0.046016251568732194 0.004875098704849453 0.027646822449937325 -0.04860467510173452 0.01773394375247827 -0.04208238866682337 -0.011380732700800726 0.015344844303054802 4.7504655212953715 0.01445531894694789 -0.04748882064215793 0.017534549696704507 -0.03215924522815428 -0.0006258297615704857 -0.03325240552429664 -0.028545122988874405 -0.012130666480917351 -5.592054466983917 -0.04814541210642474 -0.017266390186385296 -6.738135231261608 -0.04341954252587474 -0.006544925255813683 -6.6882694546215715 0.007372065267748581 -0.04403759752832977 -0.034229120800278845 0.013310822276034513 -0.0177892590404923 8.032710466540987 3.5067997402914592 -19.257656549128697 0.040291631524397416 10.3542557767235 -0.012517940536293171 -5.636084248735416 -15.65906621664372 3.1654881671859 4.562379153154034e-05 -0.03164236230442924 0.03515641036189712 0.0015718494338570394 4.7329566925086715 0.025430162676348195 12.492705223031372 -8.189714287849814 6.851407703749555 -0.0382201705601287 46.42121898980394 -0.03770507579432091 -4.2930431491219645 -14.721288005361604 -3.874349396738085 0.023540210895630954 -0.04492335511393007 -0.02408644693951936 -0.007086591621692735 -10.761754947038254 -0.04489036951455992 
-0.037369532656048074 0.008312597853851996 0.02004725843599095 0.025218357631919597 -0.030921953283569916 0.023266221532001693 5.083996008832333 6.702299060390483 -1.8267864848499522 -1.0556502385244002 4.3284965129224435 0.38174285395122354 -0.6477480360164188 -0.4253040257768033 1.1415824940273511 0.3154270270963735 0.1519621905680873 -0.31791258032115416 -0.20650524873858653 14.027908678488611 -2.2378187682145154 -0.4166769814365106 -1.876456004750167 -6.20581603898649 0.46624159137930293 -19.649334493161653 -0.5440257070310415 -12.107466627001276 3.6889609457792134 -17.738615543729953 73.93451716741738 -3.338422127811004 14.4668365262881 12.58142955528026 -6.2086102762109885 72.18072841342564 3.957797497320146 0.016386088752264952 -0.5185365532277992 4.533795908370601 -0.08725940349902142 -1.6300847806744956 0.007204024954417171 0.025400882759168804 -56.269158659316425 0.012075593879658248 0.029581282480924904 -56.26304372613461 -38.81939415521127 -0.024609202222324707 -0.03003121665437957 -0.010239823065572442 -0.007633281776892316 -0.02838743744839315 -0.03289168036078502 -0.032932558978221234 -0.029657774125143085 -36.648347340749915 -0.02789028831984245 0.02493922767846868 -0.02135540821132517 -0.01720809005997612 -0.021384102504365225 0.027412025720139406 -0.024642675742543984 -0.0042259560400996704 -19.763843605702217 0.02796319331948547 -0.01216385811711125 0.02152357332341896 -0.045126302731556274 0.005196469332076748 -0.004304872684966542 0.0008220002968202452 -0.003139381548190407 24.084730069714016 0.03836169647534274 0.03427940436315056 28.91281735279579 -0.006627273993831917 -0.02767128742256081 28.864195867157463 0.027959545544812826 0.04921557720821701 11.148435005608055 2.421329395022167 15.128806653037232 -70.24481321732061 7.686259775781759 -18.476475687151105 -7.316346303505851 -8.998318137858671 -63.408894150815 -6.611904037683431 1.4443494970239295 -2.6663806372629257 -0.5169996888554033 0.05992981885637803 -8.108709707828707 0.03454619061472605 -0.046153078278220995 44.59734179070378 -0.04463822091497622 -0.04374147702510369 44.54377394037661 12.416299626406014 -0.035951259027705816 -0.006532233434122467 -0.02837030054773932 0.03463759411528926 0.03923318739808798 0.01857620297762897 -0.04430498252652165 0.034576286085315204 11.113107956484727 -0.0019647623182651613 -0.049205938693971496 0.03506218551916839 0.0038711269850525364 -0.04754513002898586 -0.01617829792546748 0.027092846411538373 -0.04660776703940346 4.811642757280551 -0.0033060401262173687 -0.00959077543116483 0.019246267927421488 0.007173737664246913 -0.04900021471010861 0.03640022022460875 0.012111191769652486 0.040294793054817826 -5.6356339971306815 0.007462088392953761 0.0011415550325648575 -6.751576224194517 -0.0071218674922816465 -0.04375053811225809 -6.728577203749737 0.04917629763612461 0.04577218960524594 -0.029740259347158838 0.02071663661463476 -0.028361032633434386 8.08161221408594 3.4682125370938715 -19.22028378364267 -0.023648837818080366 10.351124733996109 0.010580929466254654 -5.643596129170482 -15.662196839661197 3.204712122008008 0.04245696737675113 0.010197542940297854 -0.020554099122324528 -0.03374403255444356 4.661964099138997 0.004624766001464123 12.475638913185744 -8.261355190797918 6.863801366193585 -0.037138176078561506 46.369122863009494 0.03032086917951791 -4.313440764120543 -14.761329934215428 -3.84229077994385 0.004903864000359901 -0.010166828628708782 -0.005863499157546043 0.005002815082690829 -10.715233503930069 -0.028914043289303887 
